<?xml version="1.0" encoding="utf-8"?>
<!-- Generator: Adobe Illustrator 23.0.6, SVG Export Plug-In . SVG Version: 6.00 Build 0)  -->
<svg version="1.1" id="Capa_1" xmlns="http://www.w3.org/2000/svg" xmlns:xlink="http://www.w3.org/1999/xlink" x="0px" y="0px"
	 viewBox="0 0 500 500" style="enable-background:new 0 0 500 500;" xml:space="preserve">
<style type="text/css">
	.st0{fill:#FFFFFF;}
</style>
<g>
	<g>
		<g>
			<circle class="st0" cx="292.82" cy="204.19" r="19.92"/>
			<circle class="st0" cx="292.82" cy="290.83" r="19.92"/>
			<circle class="st0" cx="379.47" cy="204.19" r="19.92"/>
			<path class="st0" d="M329.67,495c-0.3,0-0.64-0.02-1-0.05l-0.98-0.1l-0.98,0.1c-0.34,0.03-0.68,0.05-1.02,0.05H74.72
				C36.28,495,5,463.73,5,425.28V114.55c0-38.44,31.27-69.72,69.71-69.72h34.86V14.96c0-5.49,4.47-9.96,9.96-9.96
				c5.49,0,9.96,4.47,9.96,9.96v29.88h109.55V14.96c0-5.49,4.47-9.96,9.96-9.96c5.49,0,9.96,4.47,9.96,9.96v29.88h110.55V14.96
				c0-5.49,4.47-9.96,9.96-9.96c5.49,0,9.96,4.47,9.96,9.96v29.88h35.85c38.44,0,69.71,31.27,69.71,69.72v109.55
				c0,5.49-4.47,9.96-9.96,9.96c-5.49,0-9.96-4.47-9.96-9.96V114.55c0-27.46-22.34-49.8-49.8-49.8h-35.85v29.88
				c0,5.49-4.47,9.96-9.96,9.96c-5.49,0-9.96-4.47-9.96-9.96V64.76H258.96v29.88c0,5.49-4.47,9.96-9.96,9.96
				c-5.49,0-9.96-4.47-9.96-9.96V64.76H129.49v29.88c0,5.49-4.47,9.96-9.96,9.96c-5.49,0-9.96-4.47-9.96-9.96V64.76H74.72
				c-27.46,0-49.8,22.34-49.8,49.8v310.73c0,27.46,22.34,49.8,49.8,49.8h245v-91.63c0-38.44,31.27-69.72,69.71-69.72h95.61
				c4,0,7.6,2.38,9.17,6.06c1.57,3.68,0.78,7.92-1.99,10.81L336.85,491.95C334.98,493.89,332.36,495,329.67,495z M389.43,333.66
				c-27.46,0-49.8,22.34-49.8,49.8v76.89l121.99-126.68H389.43z"/>
			<circle class="st0" cx="119.53" cy="204.19" r="19.92"/>
			<circle class="st0" cx="206.18" cy="290.83" r="19.92"/>
			<circle class="st0" cx="119.53" cy="377.48" r="19.92"/>
			<circle class="st0" cx="119.53" cy="290.83" r="19.92"/>
			<circle class="st0" cx="206.18" cy="377.48" r="19.92"/>
			<circle class="st0" cx="206.18" cy="204.19" r="19.92"/>
		</g>
	</g>
</g>
</svg>
