<?xml version="1.0" encoding="utf-8"?>
<!-- Generator: Adobe Illustrator 23.0.6, SVG Export Plug-In . SVG Version: 6.00 Build 0)  -->
<svg version="1.1" id="Capa_1" xmlns="http://www.w3.org/2000/svg" xmlns:xlink="http://www.w3.org/1999/xlink" x="0px" y="0px"
	 viewBox="0 0 500 500" style="enable-background:new 0 0 500 500;" xml:space="preserve">
<style type="text/css">
	.st0{fill:#FFFFFF;}
</style>
<g>
	<g>
		<g>
			<path class="st0" d="M495,192.81c0-0.17-0.09-0.32-0.1-0.48c-0.05-0.57-0.16-1.12-0.33-1.67c-0.11-0.48-0.27-0.96-0.47-1.41
				c-0.23-0.43-0.51-0.84-0.82-1.23c-0.32-0.47-0.7-0.9-1.11-1.29c-0.13-0.11-0.19-0.27-0.33-0.38l-78.52-61V62.13
				c0-13.53-10.97-24.5-24.5-24.5h-88.5l-35.44-27.52c-8.76-6.82-21.03-6.82-29.78,0l-35.44,27.52h-88.5
				c-13.53,0-24.5,10.97-24.5,24.5v63.22l-78.51,61c-0.14,0.11-0.2,0.26-0.33,0.38c-0.42,0.39-0.79,0.82-1.11,1.29
				c-0.31,0.38-0.58,0.79-0.82,1.23c-0.2,0.46-0.35,0.93-0.47,1.41c-0.17,0.53-0.28,1.08-0.33,1.63c0,0.16-0.1,0.31-0.1,0.48V470.5
				c0.03,2.63,0.49,5.24,1.36,7.72c-1.87,2.83-1.79,6.52,0.22,9.26s5.5,3.93,8.76,2.99c4.13,2.95,9.07,4.53,14.15,4.53H470.5
				c5.09-0.01,10.05-1.62,14.19-4.6c0.7,0.21,1.42,0.33,2.15,0.35c2.98,0.02,5.73-1.61,7.16-4.23s1.29-5.81-0.35-8.31
				c0.87-2.48,1.33-5.09,1.36-7.72L495,192.81L495,192.81z M245.09,23.01c2.85-2.27,6.89-2.27,9.74,0l18.84,14.63h-47.37
				L245.09,23.01z M31.52,478.67L245.1,312.76c2.85-2.25,6.88-2.25,9.74,0l213.64,165.91H31.52z M478.67,465.91L264.87,299.86
				c-8.75-6.81-21.01-6.81-29.76,0L21.32,465.91V205.25l133.83,103.93c3.57,2.77,8.7,2.12,11.46-1.45s2.12-8.7-1.45-11.46
				L29.21,190.68l57.45-44.64v63.11c0,4.51,3.66,8.17,8.17,8.17c4.51,0,8.17-3.66,8.17-8.17V62.13c0-4.51,3.66-8.17,8.17-8.17
				h277.67c4.51,0,8.17,3.66,8.17,8.17v147.01c0,4.51,3.66,8.17,8.17,8.17c4.51,0,8.17-3.66,8.17-8.17v-63.11l57.45,44.64
				l-136.2,105.77c-3.56,2.77-4.21,7.9-1.44,11.46c2.77,3.56,7.9,4.21,11.46,1.44l134.07-104.11V465.91z"/>
			<path class="st0" d="M168.33,111.14h163.34c4.51,0,8.17-3.66,8.17-8.17c0-4.51-3.66-8.17-8.17-8.17H168.33
				c-4.51,0-8.17,3.66-8.17,8.17C160.16,107.48,163.82,111.14,168.33,111.14z"/>
			<path class="st0" d="M339.83,151.97c0-4.51-3.66-8.17-8.17-8.17H168.33c-4.51,0-8.17,3.66-8.17,8.17c0,4.51,3.66,8.17,8.17,8.17
				h163.34C336.17,160.14,339.83,156.48,339.83,151.97z"/>
			<path class="st0" d="M339.83,200.98c0-4.51-3.66-8.17-8.17-8.17h-73.5c-4.51,0-8.17,3.66-8.17,8.17s3.66,8.17,8.17,8.17h73.5
				C336.17,209.15,339.83,205.49,339.83,200.98z"/>
		</g>
	</g>
</g>
</svg>
