<?xml version="1.0" encoding="utf-8"?>
<!-- Generator: Adobe Illustrator 23.0.6, SVG Export Plug-In . SVG Version: 6.00 Build 0)  -->
<svg version="1.1" id="Camada_1" xmlns="http://www.w3.org/2000/svg" xmlns:xlink="http://www.w3.org/1999/xlink" x="0px" y="0px"
	 viewBox="0 0 90 90" style="enable-background:new 0 0 90 90;" xml:space="preserve">
<style type="text/css">
	.st0{fill:#FFFFFF;}
</style>
<path class="st0" d="M57.78,35.08c-1.64,0-2.96-1.33-2.96-2.96c0-1.64,1.33-2.96,2.96-2.96c1.64,0,2.96,1.33,2.96,2.96
	C60.75,33.75,59.42,35.08,57.78,35.08L57.78,35.08z M45.07,57.33c-6.91,0-12.51-5.6-12.51-12.51c0-6.91,5.6-12.51,12.51-12.51
	c6.91,0,12.51,5.6,12.51,12.51C57.58,51.73,51.98,57.33,45.07,57.33L45.07,57.33z M54.5,25.15h-19c-2.58,0-5.02,1.02-6.86,2.86
	c-1.84,1.84-2.86,4.28-2.86,6.87v20.24c0,2.58,1.02,5.02,2.86,6.87c1.84,1.84,4.28,2.86,6.86,2.86h19c2.58,0,5.02-1.02,6.87-2.86
	c1.84-1.84,2.86-4.28,2.86-6.87V34.88c0-2.58-1.01-5.02-2.86-6.87C59.52,26.17,57.08,25.15,54.5,25.15L54.5,25.15z M45.01,36.64
	c-4.52,0-8.19,3.67-8.19,8.19c0,4.52,3.67,8.19,8.19,8.19c4.53,0,8.19-3.67,8.19-8.19C53.2,40.31,49.54,36.64,45.01,36.64
	L45.01,36.64z M67.72,55.12c0,7.27-5.95,13.22-13.22,13.22h-19c-7.27,0-13.22-5.95-13.22-13.22V34.88c0-7.27,5.95-13.22,13.22-13.22
	h19c7.27,0,13.22,5.95,13.22,13.22V55.12L67.72,55.12z M0,90h90V0H0V90L0,90z M0,0v90V0L0,0z"/>
</svg>
