<?xml version="1.0" encoding="utf-8"?>
<!-- Generator: Adobe Illustrator 23.0.6, SVG Export Plug-In . SVG Version: 6.00 Build 0)  -->
<svg version="1.1" id="Capa_1" xmlns="http://www.w3.org/2000/svg" xmlns:xlink="http://www.w3.org/1999/xlink" x="0px" y="0px"
	 viewBox="0 0 500 500" style="enable-background:new 0 0 500 500;" xml:space="preserve">
<style type="text/css">
	.st0{fill:#FFFFFF;}
</style>
<g>
	<path class="st0" d="M295.2,495c-1.33,0-2.62-0.36-3.74-1.05c-2.05-1.25-19.96-12.7-19.09-28.29c0.31-5.62,2.8-21.81,5.68-40.55
		c3.98-25.88,7.26-47.7,7.11-52.56c-0.01-0.29-0.03-0.48-0.05-0.62l-0.14-1.14l-0.91-0.74c-0.56-0.46-1.41-0.99-2.48-1.65
		c-3.32-2.05-8.33-5.15-10.86-12.06c-1.01-2.76-2.72-5.23-4.53-7.85c-3.87-5.6-8.69-12.57-7.29-23.95
		c0.98-7.97,4.08-12.07,6.34-15.07c1.18-1.57,2.12-2.81,2.57-4.66l0.56-2.27l-57.38-27.03c-1.02-0.48-1.92-1.21-2.59-2.1
		l-29.45-39.05l-0.93-0.29c-12.52-3.87-21.21-14.58-22.14-27.28l-1.87-25.59l-21.75-28.89l-0.39-0.27
		c-5.37-3.73-16.33-10.34-23.37-11.5c-0.71-0.12-1.41-0.18-2.08-0.18c-4.03,0-6.22,2.14-6.82,3.28c-1.19,2.09-3.54,3.44-6.1,3.44
		H69.94c-1.46,0-2.86-0.43-4.05-1.25c-1.37-0.94-13.39-9.85-13.39-32.26c0-13.86,3.8-24.3,10.99-30.2
		c3.87-3.17,8.63-4.85,13.78-4.85c1.29,0,2.61,0.11,3.93,0.32c10.36,1.67,39.97,6.21,48.8,7.56l0.5,0.08l17.78-3.04l4.69-12.35
		c4.51-11.88,14-21.53,26.03-26.48l8.14-3.35c0.87-0.36,1.79-0.54,2.73-0.54c2.82,0,5.35,1.62,6.45,4.13
		c0.73,1.67,0.75,3.51,0.05,5.19c-0.7,1.68-2.03,2.99-3.76,3.7l-8.14,3.35c-8.49,3.49-15.18,10.3-18.36,18.68l-6.07,16.01
		c-0.86,2.26-2.91,3.92-5.35,4.34l-22.9,3.91c-0.4,0.07-0.81,0.1-1.21,0.1c-0.37,0-0.73-0.03-1.1-0.08l-0.16-0.02
		c-6.48-0.99-39.36-6.03-50.41-7.81c-0.58-0.09-1.15-0.14-1.68-0.14c-1.8,0-3.33,0.54-4.68,1.65c-3.78,3.1-6.04,10.52-6.04,19.85
		c0,9.67,2.85,15.53,5.25,18.75l0.9,1.21h17.38l0.87-0.81c2.92-2.7,7.97-5.92,15.44-5.92c1.46,0,2.98,0.13,4.51,0.38
		c12.76,2.09,28.85,13.58,30.64,14.88c0.56,0.4,1.05,0.88,1.46,1.43l23.57,31.3c0.78,1.03,1.23,2.25,1.33,3.51l2.01,27.54
		c0.57,7.85,6.55,14.37,14.54,15.84c1.75,0.32,3.29,1.27,4.34,2.66l29.96,39.72l21.47,10.12l3.67-4.41l-10.73-13.18
		c-2.47-3.04-3.83-6.84-3.83-10.7c0-4.71,2.03-9.27,5.56-12.51c3.28-3.01,7.75-4.73,12.28-4.73c0.3,0,0.61,0.01,0.92,0.02
		c0.4,0.02,0.79,0.03,1.18,0.03c0,0,0,0,0,0c6.46,0,12.63-2.67,16.94-7.33l42.4-45.88c6.7-7.25,6.09-18.46-1.38-24.98l-14.07-12.29
		c-0.91-0.8-2.1-1.25-3.35-1.25c-2.72,0-4.93,2.04-5.04,4.63c-0.34,7.68-5.65,14.41-13.22,16.75l-3.93,1.21
		c-1.89,0.58-3.84,0.88-5.8,0.88c-4.41,0-8.71-1.52-12.12-4.27c-7.08-5.71-11.33-13.75-11.98-22.64c-0.65-8.89,2.4-17.43,8.57-24.05
		l6.06-6.48c0.74-0.8,1.38-1.67,1.89-2.61c3.88-7.06,11.46-11.45,19.79-11.45c3.11,0,6.12,0.62,8.96,1.83l26.02,11.16l0.72,0.02
		c1.01,0,1.97-0.47,2.58-1.25c0.54-0.73,0.74-1.56,0.6-2.39c-0.18-0.91-0.68-1.63-1.42-2.1l-32.7-21.66
		c-9.05-5.99-12.59-17.47-8.42-27.29c1.77-4.17,4.76-7.7,8.63-10.2l22.33-14.46l-5.58-2.04c-3.6-1.33-7.37-2-11.19-2
		c-4.22,0-8.35,0.82-12.27,2.43l-4.98,2.05c-0.87,0.36-1.79,0.54-2.73,0.54c-2.82,0-5.35-1.62-6.45-4.13
		c-0.73-1.67-0.75-3.51-0.05-5.19s2.03-2.99,3.76-3.7l4.98-2.05C272.46,6.18,278.42,5,284.52,5c5.53,0,10.97,0.98,16.19,2.9
		l5.14,1.9c4.99,1.84,8.47,6.18,9.07,11.33c0.6,5.14-1.79,10.12-6.23,13l-21.95,14.21c-1.55,1-2.75,2.42-3.46,4.09
		c-1.67,3.93-0.25,8.53,3.38,10.94l32.76,21.7c3.89,2.57,6.46,6.47,7.25,10.96c0.79,4.49-0.31,8.99-3.09,12.67
		c-3.22,4.25-8.44,6.79-13.97,6.79c-2.4,0-4.72-0.47-6.9-1.41l-25.44-10.91c-1.06-0.46-2.19-0.69-3.35-0.69
		c-3.1,0-5.92,1.64-7.37,4.27c-1.05,1.92-2.35,3.71-3.86,5.33l-6.06,6.48c-3.6,3.85-5.37,8.82-4.99,14
		c0.38,5.18,2.85,9.86,6.97,13.18c0.9,0.72,2.04,1.12,3.2,1.12c0.51,0,1.02-0.08,1.51-0.23l3.93-1.21c1.99-0.61,3.39-2.38,3.48-4.41
		c0.43-9.88,8.77-17.61,18.98-17.61c4.74,0,9.28,1.68,12.78,4.74l14.07,12.29c13.17,11.51,14.26,31.28,2.43,44.08l-42.4,45.88
		c-6.96,7.53-16.92,11.84-27.34,11.84c-0.65,0-1.3-0.02-1.95-0.05l-0.22-0.01c-0.97,0-1.89,0.36-2.61,1.02
		c-0.76,0.7-1.19,1.65-1.19,2.68c0,0.83,0.29,1.64,0.82,2.29l32.04,39.35l2.38-2.1c3.93-3.46,9.03-5.36,14.36-5.36
		c1.82,0,3.62,0.23,5.36,0.68c13.69,3.52,26.76,8.93,38.86,16.06l4.19,2.47c4.17,2.46,7.03,6.72,7.65,11.42l0.22,1.62l26.37,11.29
		c5.22,2.23,9.08,6.57,10.58,11.91c1.5,5.33,0.46,10.97-2.86,15.47l-5.42,7.32l-4.59,16.71c-1.91,6.96-6.87,12.69-13.61,15.74
		c-2.21,1-4.14,2.54-5.58,4.43c-7.07,9.33-17.44,22.99-26.66,35.04c-10.41,13.61-15.64,20.44-18.54,23.76l-0.38,0.43l-0.06,0.16
		l-0.06-0.05c-0.67,0.74-1.2,1.27-1.64,1.64l0.87,1.04c-1.2,4.05-2.99,10.84-4.38,16.45l-0.06,0.24l-0.97,14.76
		c-0.16,2.38-1.62,4.53-3.81,5.61C297.4,494.74,296.3,495,295.2,495z M292.8,293.61c-1.87,0-3.65,0.7-5.02,1.97
		c-1.23,1.15-2.59,2.5-4.06,4.02l-0.47,0.49l-0.2,0.64c-0.15,0.48-0.35,0.94-0.6,1.35l-0.35,0.6l-0.03,0.69
		c-0.33,6.69-2.79,10.47-5.51,14.06c-1.86,2.46-3.2,4.23-3.74,8.67c-0.75,6.12,1.21,9.29,5.02,14.81c2.11,3.05,4.49,6.5,6.09,10.85
		c0.89,2.42,2.31,3.39,5.2,5.17c3.64,2.25,9.74,6.01,10.02,15.17c0.19,6.01-2.75,25.67-7.25,54.96c-1.34,8.72-2.86,18.61-3.96,26.27
		l5.86,1.17c1.32-4.63,2.42-7.59,4.14-9.03l0.21-0.18l0.17-0.21c3.91-4.75,20.94-26.96,44.44-57.97c2.83-3.73,6.61-6.74,10.95-8.7
		c2.97-1.34,5.16-3.87,6-6.93l4.91-17.9c0.22-0.8,0.58-1.54,1.07-2.21l6.16-8.33c0.86-1.17,1.13-2.58,0.75-3.98
		c-0.4-1.42-1.37-2.51-2.74-3.1l-25.23-10.8c-5.18-2.22-8.83-6.98-9.54-12.42l-0.18-1.39l-5.1-3.01
		c-10.94-6.46-22.78-11.35-35.17-14.54C294.04,293.69,293.42,293.61,292.8,293.61z"/>
	<path class="st0" d="M229.69,37.9c-1.84,0-3.65-0.72-4.95-1.99c-1.3-1.26-2.05-3.01-2.05-4.79c0-1.78,0.75-3.53,2.05-4.79
		c1.3-1.26,3.11-1.99,4.95-1.99s3.65,0.72,4.95,1.99c1.3,1.26,2.05,3.01,2.05,4.79c0,1.78-0.75,3.53-2.05,4.79
		C233.34,37.18,231.53,37.9,229.69,37.9z"/>
	<path class="st0" d="M380.23,146.72c-4.44,0-8.59-2.31-10.82-6.03l-13.43-22.42c-3.29-5.5-3.27-12.31,0.06-17.78
		c0.7-1.16,0.77-2.58,0.18-3.79l-7.35-15.21c-1.61-3.33-4.79-5.79-8.49-6.59c-11.14-2.4-18.92-11.79-18.92-22.84
		c0-9.88,6.46-18.73,16.07-22.04l16.99-5.85c0.33-0.11,0.67-0.2,1.02-0.27l42.01-7.85c2.64-0.49,5.32-0.74,7.97-0.74
		c3.11,0,6.24,0.34,9.31,1.02c11.04,2.43,20.4,8.9,26.37,18.22c5.96,9.31,7.78,20.31,5.13,30.96l-3.71,14.88
		c-2.9,11.63-10.84,21.49-21.78,27.05c-13.22,6.73-23.47,17.86-28.85,31.35l-0.08,0.19C390.04,143.61,385.35,146.72,380.23,146.72z
		 M405.5,28.86c-1.77,0-3.55,0.17-5.31,0.49l-41.49,7.76l-16.49,5.68c-4.04,1.39-6.76,5.12-6.76,9.27c0,4.65,3.27,8.6,7.96,9.6
		c7.92,1.7,14.7,6.97,18.14,14.08l7.35,15.21c2.55,5.26,2.25,11.4-0.8,16.41c-0.77,1.27-0.77,2.84-0.01,4.11l11.77,19.65l2.52-4.68
		c7.16-13.3,18.2-24.02,31.92-31c7.37-3.75,12.72-10.4,14.68-18.23l3.71-14.88c1.77-7.1,0.56-14.43-3.42-20.64
		c-3.97-6.21-10.21-10.52-17.57-12.14C409.66,29.09,407.57,28.86,405.5,28.86z"/>
</g>
</svg>
