<?xml version="1.0" encoding="utf-8"?>
<!-- Generator: Adobe Illustrator 23.0.6, SVG Export Plug-In . SVG Version: 6.00 Build 0)  -->
<svg version="1.1" id="Layer_2" xmlns="http://www.w3.org/2000/svg" xmlns:xlink="http://www.w3.org/1999/xlink" x="0px" y="0px"
	 viewBox="0 0 1200 560" style="enable-background:new 0 0 1200 560;" xml:space="preserve">
<style type="text/css">
	.st0{fill:#FFFFFF;}
</style>
<g>
	<g id="XMLID_6_">
		<path id="XMLID_71_" class="st0" d="M680.54,519.32c5.93,0.04,7.21-3.11,7.16-8.14c-0.11-12.87-0.04-25.73-0.06-38.6
			c0-12.87-0.06-25.73,0.03-38.6c0.03-4.88-0.93-8.39-6.95-8.39c-5.86,0-7.2,3.2-7.19,8.22c0.06,25.73,0.04,51.47-0.03,77.2
			C673.48,515.95,674.55,519.28,680.54,519.32z"/>
		<path id="XMLID_70_" class="st0" d="M561.21,499.89c0.16,8.74,3.47,16.09,13.1,18.98c16.51,4.96,29.13-3.28,30.15-20.63
			c0.63-10.72,0.12-21.51,0.12-32.26c-0.02,0-0.04,0-0.05,0c0-11.37-0.01-22.74,0-34.11c0-4.87-2.85-6.28-7.19-6.2
			c-4.05,0.07-6.41,1.74-6.48,6c-0.05,3.07-0.12,6.15-0.13,9.22c-0.05,19.05-0.06,38.11-0.14,57.16c-0.02,4.8-1.59,8.59-7.19,8.8
			c-5.99,0.23-8.07-3.43-8.2-8.78c-0.06-2.46-0.06-4.92-0.06-7.37c-0.03-19.05-0.07-38.11-0.05-57.16c0.01-4.54-1.06-7.78-6.54-7.91
			c-5.65-0.14-7.59,2.61-7.56,7.89C561.09,455.64,560.8,477.77,561.21,499.89z"/>
		<path id="XMLID_69_" class="st0" d="M615.71,513.22c-0.02,2.99-0.07,5.69,3.85,5.95c3.67,0.24,6.95-0.3,7.42-4.84
			c0.28-2.74,0.29-5.52,0.29-8.28c0.02-16.54,0.01-33.09,0.01-49.63c0.95-0.21,1.9-0.41,2.85-0.62c1.55,5.47,3.17,10.91,4.64,16.4
			c3.66,13.65,7.41,27.28,10.81,41c1.53,6.15,5.84,6.2,10.67,6c5.22-0.22,5.58-3.81,5.58-7.75c-0.01-26.13-0.03-52.25-0.02-78.38
			c0-4.15-0.95-7.33-6.02-7.33c-4.99,0-6.16,3.06-6.15,7.26c0.01,9.84,0.12,19.67-0.11,29.5c-0.1,4.47,1.21,9.25-2.1,15.81
			c-4.4-16.51-8.52-30.64-11.85-44.95c-1.83-7.9-6.95-8.15-13.18-7.71c-6.89,0.48-6.33,5.55-6.36,10.11
			C615.9,461.59,615.87,487.4,615.71,513.22z"/>
		<path id="XMLID_68_" class="st0" d="M783.64,438.05c0.61-0.02,1.23-0.03,1.84-0.02c4.05,0.01,7.42-0.76,7.53-5.87
			c0.11-5.53-3.39-6.59-7.86-6.58c-7.07,0.01-14.15,0.26-21.2-0.09c-7.34-0.36-9.72,3.05-9.56,9.96
			c0.28,12.29,0.08,24.59,0.09,36.88c0,12.91-0.03,25.82,0.02,38.73c0.01,3.39-0.08,7.59,4.48,7.79c9.81,0.43,19.65,0.31,29.47,0.16
			c3.46-0.05,4.5-2.71,4.55-5.79c0.06-3.61-1.48-5.97-5.28-6.16c-4.3-0.21-8.6-0.16-12.9-0.28c-2.84-0.08-6.05-0.34-6.67-3.67
			c-1.35-7.28-2-14.9,0.26-21.89c1.95-6.01,8.41-3.5,13.01-4.05c4.03-0.48,6.09-2.23,6.24-6.4c0.17-4.84-3.05-5.47-6.63-5.65
			c-2.45-0.13-4.91,0.04-7.36,0.03c-3.14-0.02-5.01-1.41-5.94-4.6C763.25,445.34,768.03,438.51,783.64,438.05z"/>
		<path id="XMLID_67_" class="st0" d="M720.08,496.74c-1.55-10.86-3.08-21.72-4.65-32.58c-1.54-10.62-3.13-21.23-4.69-31.85
			c-0.87-5.97-4.79-7.32-10.03-6.57c-5.83,0.83-4.13,4.9-3.6,8.47c3.83,25.78,7.87,51.54,11.35,77.37c0.9,6.68,4.44,8.17,9.99,7.63
			c5.52-0.54,12.92,2.83,14.04-7.09c0.99-8.83,2.65-17.59,4.05-26.37c2.69-16.96,5.51-33.9,8.04-50.89
			c0.57-3.83,1.24-8.38-4.78-9.07c-5.22-0.6-7.12,2.3-7.59,6.96c-0.31,3.05-0.94,6.06-1.4,9.09c-2.76,18.34-5.51,36.69-8.26,55.03
			C721.73,496.83,720.91,496.78,720.08,496.74z"/>
		<path id="XMLID_66_" class="st0" d="M689.87,38.27c-38.4,0.3-76.82,0.35-115.22-0.15c-9.49-0.13-12.01,3.07-11.95,12.21
			c0.35,55.61,0.18,111.22,0.18,166.84c0.04,0,0.09,0,0.13,0c0,55.92,0.14,111.84-0.15,167.76c-0.04,8.36,2.45,11.76,11.01,11.19
			c8.57-0.56,17.2-0.11,25.8-0.15c12.33-0.06,12.45-0.14,12.47-12.23c0.05-39.33,0.08-78.66,0.07-117.99
			c-0.01-15.46-0.07-15.47,14.96-15.46c13.83,0.01,27.66-0.16,41.48,0.14c6.84,0.15,10.3-1.94,9.97-9.44
			c-0.44-9.81-0.47-19.67-0.09-29.49c0.27-6.98-2.79-9.17-9.32-9.07c-15.05,0.23-30.12-0.27-45.16,0.21
			c-8.48,0.27-12.09-2.15-11.96-11.35c0.45-30.72,0.1-61.45,0.15-92.17c0.02-12.11,0.87-12.87,13.32-12.9
			c22.43-0.05,44.86-0.18,67.29,0.08c6.36,0.07,8.75-1.95,8.39-8.5c-0.51-9.5-0.56-19.07-0.03-28.56
			C701.69,40.62,698.13,38.21,689.87,38.27z"/>
		<path id="XMLID_65_" class="st0" d="M770.2,40.18c-9.81,0.47-19.71,0.69-29.49-0.05c-9.46-0.71-12.07,2.85-12.01,12.06
			c0.36,55.33,0.18,110.66,0.18,165.99c0.02,0,0.05,0,0.07,0c0,36.27,0,72.55,0,108.82c0,19.98,0.07,39.96-0.02,59.94
			c-0.02,5.25,0.95,9.09,7.42,9.02c12.29-0.14,24.59-0.04,36.89-0.03c4.65,0,7.12-2.42,6.32-6.93c-1.7-9.55,0.27-19,0.26-28.5
			c-0.05-51.3-0.01-102.59,0.02-153.89c0.02-40.55,0.07-81.09,0.09-121.64c0.01-11.68-0.21-23.36-0.02-35.04
			C780.02,43.07,777.6,39.82,770.2,40.18z"/>
		<path id="XMLID_64_" class="st0" d="M917.01,519.24c6.31-0.12,6.69-3.91,6.66-8.6c-0.07-12.6-0.02-25.21-0.02-37.81
			c0-12.6-0.02-25.21,0.01-37.81c0.01-4.84,0.1-9.41-6.84-9.44c-6.65-0.03-7.31,4.09-7.3,9.16c0.05,25.21,0.08,50.41,0.04,75.62
			C909.55,515.56,910.35,519.37,917.01,519.24z"/>
		<path id="XMLID_63_" class="st0" d="M1140.81,38.61c-37.51-0.06-75.01,0.21-112.51-0.26c-9.35-0.12-12.09,2.84-12.02,12.12
			c0.38,55.33,0.19,110.67,0.19,166c-0.02,0-0.03,0-0.05,0c0,55.95,0.12,111.9-0.13,167.85c-0.04,8.12,2.08,11.45,10.89,11.36
			c39.04-0.39,78.08-0.22,117.12-0.03c6.5,0.03,10.65-1.02,10.24-8.96c-0.53-10.12-0.43-20.29-0.26-30.43
			c0.13-8.1-3.17-11.61-11.57-11.5c-22.13,0.29-44.27-0.17-66.4,0.11c-7.46,0.09-10.44-2.41-10.37-10.1
			c0.27-28.59,0.25-57.18-0.03-85.77c-0.07-7.67,2.94-10.24,10.41-10.1c16.9,0.31,33.82-0.2,50.72,0.07
			c6.85,0.11,9.31-2.54,9.05-9.25c-0.37-9.52-0.49-19.08-0.01-28.58c0.4-7.91-3.12-10.04-10.41-9.89
			c-15.98,0.33-31.98-0.27-47.95,0.18c-8.53,0.24-12.07-2.29-11.92-11.45c0.47-27.66,0.43-55.34-0.01-83
			c-0.14-8.72,3.3-11.17,11.42-11.05c21.51,0.33,43.04-0.18,64.55,0.21c8.2,0.15,11.96-2.28,11.35-10.99
			c-0.56-7.95-0.09-15.98-0.13-23.97C1152.92,38.73,1152.87,38.63,1140.81,38.61z"/>
		<path id="XMLID_62_" class="st0" d="M969.38,438.02c4.07,0.17,6.22-1.94,6.15-6.21c-0.07-4.28-2.36-6.09-6.36-6.12
			c-10.13-0.07-20.27-0.12-30.4-0.15c-4.17-0.01-7.17,1.4-7.56,6.15c-0.42,5.16,2.75,6.47,6.91,6.26c7.28-0.36,8.66,3.77,8.52,9.9
			c-0.23,10.13-0.06,20.27-0.04,30.4c0,10.44,0.06,20.89-0.03,31.33c-0.04,5.3,0.12,9.88,7.54,9.66c7.18-0.22,6.48-5.07,6.49-9.66
			c0.06-20.27,0.17-40.54,0.04-60.81C960.59,442.52,961.49,437.69,969.38,438.02z"/>
		<path id="XMLID_61_" class="st0" d="M879.34,506.86c-4.49,0.72-7.9-0.58-9.37-5.25c-0.46-1.46-0.85-2.95-1.12-4.46
			c-0.77-4.28-3.68-5.24-7.46-4.96c-4.66,0.34-5.07,3.57-5.06,7.21c0.02,11.75,8.9,20.1,21.55,20.2
			c16.73,0.13,25.73-13.18,20.79-30.68c-2.9-10.29-10.39-17.18-17.8-24.1c-3.62-3.38-7.38-6.66-9-11.45
			c-1.93-5.73-3.17-12.18,3.32-15.49c7-3.57,9.65,1.35,11.3,7.55c1.24,4.66,5.57,4.31,9.22,3.64c4.93-0.91,3.81-4.66,3.13-8.01
			c-2.26-11.29-11.25-17.96-22.71-16.87c-17.04,1.62-25.08,20.94-15.66,37.69c4.13,7.35,10.46,12.78,16.35,18.6
			c5.17,5.11,9.07,10.86,8.75,18.55C885.42,503.1,883.77,506.15,879.34,506.86z"/>
		<path id="XMLID_50_" class="st0" d="M1094.84,425.73c-6.46,0.21-6.21,4.71-6.21,9.09c-0.01,25.21,0.02,50.41,0.01,75.62
			c0,4.55,0.09,8.67,6.52,8.72c6.61,0.06,7.42-3.85,7.38-9.02c-0.09-12.6-0.03-25.21-0.02-37.81c0-12.6-0.06-25.21,0.03-37.81
			C1102.59,429.18,1101.22,425.52,1094.84,425.73z"/>
		<path id="XMLID_33_" class="st0" d="M979.09,387.98c-5.5-20.91-7.31-42.25-7.25-63.89c0.06-23.33,1.28-46.71-1.71-69.99
			c-1.54-12.01-6.03-22.25-17.2-27.68c-7.48-3.64-5.49-6.5-0.9-10.4c14.99-12.73,20.23-29.34,19.97-48.5
			c-0.32-23.67-1.11-47.39,0.16-71c1.76-32.88-25.19-58.16-57.93-58.03c-27.05,0.11-54.1-0.13-81.15-0.13
			c-11.9,0-12.2,0.33-12.2,12.64c-0.02,55.33-0.01,110.67-0.01,166c0.04,0,0.09,0,0.13,0c0,55.95,0.13,111.89-0.14,167.84
			c-0.04,8.27,2.39,11.83,11.02,11.28c8.88-0.56,17.86-0.62,26.73,0.02c9.23,0.66,12.36-2.64,12.24-12.03
			c-0.46-35.04-0.43-70.09-0.13-105.13c0.29-33.4-5.08-28.22,28.75-28.65c12.46-0.16,18.64,4.56,22.44,16.37
			c1.9,5.89,2.45,12,2.44,18.2c-0.03,18.75-0.18,37.51,0.2,56.25c0.24,12.28,1.37,24.57,4.6,36.48
			c3.55,13.08,10.51,18.23,23.91,18.34c6.45,0.05,12.92-0.17,19.36,0.03C978.31,396.18,980.87,394.71,979.09,387.98z M921.97,175.66
			c-0.75,18.3-8.83,24.89-27.19,24.78c-26.72-0.17-23.94,3.4-24.09-24.03c-0.06-11.34-0.01-22.69-0.01-34.03
			c0-15.33,0.23-30.66-0.1-45.98c-0.16-7.57,2.94-10.59,10.36-10.3c7.65,0.3,15.34-0.19,22.99,0.19
			c11.75,0.58,17.92,5.95,18.18,17.67C922.65,127.85,922.95,151.8,921.97,175.66z"/>
		<path id="XMLID_26_" class="st0" d="M1077.08,499.65c-0.11-8.53,1.25-17.38-6.1-24.13c-2.14-1.97-0.66-3.73,0.68-5.59
			c8.25-11.43,7.62-24.26,2.31-35.86c-4.91-10.73-16.6-8.36-26.33-8.48c-1.84-0.02-3.69,0.13-5.53,0c-6.25-0.45-8.86,2.24-8.71,8.63
			c0.29,12.59,0.09,25.19,0.06,37.78c0,12.59,0.01,25.19,0,37.78c0,4.73-0.39,9.32,6.71,9.45c7.61,0.14,7.3-4.74,7.29-9.85
			c-0.02-7.06-0.02-14.13,0.06-21.19c0.04-3.51,0.39-6.98,5-7.42c4.4-0.42,8.17,0.88,9.52,5.39c0.86,2.87,0.81,6.04,0.94,9.09
			c0.24,5.82,0.05,11.68,0.55,17.47c0.53,6.18,5.05,6.91,10.11,6.47c5.46-0.47,3.85-4.34,3.72-7.58
			C1077.19,507.63,1077.13,503.64,1077.08,499.65z M1062.45,461.92c-0.45,4.84-4.46,6.11-8.84,6.06c-4.9-0.05-6.12-3.19-6.12-7.33
			c0-2.75,0-5.51,0.01-8.26c0.01-2.45-0.02-4.89,0.02-7.34c0.05-3.79,1.3-6.58,5.67-6.83c4.33-0.25,8.6,0.55,9.18,5.44
			C1063.07,449.68,1063.01,455.88,1062.45,461.92z"/>
		<path id="XMLID_17_" class="st0" d="M843.05,478.65c-3.12-4.27-3.28-6.14-0.07-10.6c7.21-10.01,6.71-21.73,2.2-32.57
			c-4.08-9.78-13.59-10.28-22.84-9.94c-2.76,0.1-5.54,0.2-8.29-0.03c-7.05-0.57-10.01,2.33-9.79,9.6c0.37,12.27,0.1,24.56,0.1,36.85
			c0,13.2,0.02,26.41-0.01,39.61c-0.01,4.6,1.25,7.78,6.74,7.63c5-0.14,6.12-3.22,6.15-7.34c0.04-7.68-0.01-15.36,0.12-23.03
			c0.06-3.37-0.03-7.23,4.49-7.89c4.22-0.62,7.95,0.66,10.24,4.61c1.76,3.03,1.87,6.43,1.89,9.83c0.05,5.83,0.07,11.67,0.22,17.5
			c0.1,4.07,2.29,6.2,6.39,6.22c3.08,0.02,7.12,0.32,7.16-3.81C847.87,502.87,851.16,489.74,843.05,478.65z M832.86,461.71
			c-1.37,4.87-5.16,6.58-9.96,6.08c-4.92-0.51-5.32-4.32-5.49-8.11c-0.11-2.44-0.02-4.89-0.02-7.33c-0.03,0-0.06,0-0.1,0
			c0-2.14-0.1-4.28,0.02-6.41c0.2-3.61-0.27-7.82,5.19-7.95c4.49-0.1,8.86,0.65,10.38,5.64
			C834.69,449.59,834.54,455.75,832.86,461.71z"/>
		<path id="XMLID_10_" class="st0" d="M1156.6,447.79c-0.31-15.7-7.75-23.62-21.96-23.62c-12.8-0.01-21.36,8.86-21.71,23.48
			c-0.38,15.97-0.15,31.96-0.04,47.94c0.02,3.03,0.4,6.16,1.21,9.07c3.23,11.62,10.97,16.09,24.98,14.72
			c10.44-1.02,16.89-7.8,17.34-19.05c0.37-9.2,0.07-18.44,0.07-27.65c0.05,0,0.09,0,0.14,0
			C1156.62,464.38,1156.76,456.08,1156.6,447.79z M1143.3,498.82c-0.22,4.75-2.31,9.15-8.52,8.67c-5.87-0.45-7.73-4.59-7.88-9.54
			c-0.26-8.57-0.07-17.16-0.07-25.74c-0.02,0-0.03,0-0.05,0c0-8.58-0.11-17.16,0.04-25.74c0.09-5.07,2.06-9.2,7.76-9.64
			c5.99-0.46,8.22,3.86,8.56,8.73C1144.38,463.3,1144.14,481.07,1143.3,498.82z"/>
		<path id="XMLID_7_" class="st0" d="M1024.2,510.73c-4.03-25.16-8.22-50.3-11.97-75.51c-1.16-7.79-4.95-10.77-12.57-9.4
			c-5.6-0.74-10.23-0.16-11.33,7.07c-4.06,26.71-8.31,53.39-12.68,80.05c-1.06,6.44,2.6,6.54,7.02,6.02
			c4.88-0.58,5.58-4.43,5.62-8.18c0.09-7.81,4.38-9.47,11.37-9.61c8.3-0.18,10.75,4.29,11.13,11.21c0.36,6.47,4.47,7.29,9.6,6.7
			C1026.22,518.4,1024.79,514.38,1024.2,510.73z M998.76,490.16c-3.78-0.01-6.92-1.35-6.31-5.84c1.72-12.54,3.72-25.05,5.6-37.57
			c0.86-0.04,1.72-0.07,2.59-0.11c1.88,13.06,4.06,26.08,5.48,39.19C1006.65,490.77,1002.01,490.17,998.76,490.16z"/>
	</g>
	<path id="XMLID_5_" class="st0" d="M1009.8,405.39c-2.84-4.11-5.66-2.07-8.51-0.24c-16.39,10.54,8.22-5.27-8.17,5.27
		c-2.96,1.9-5.6,3.68-2.94,7.89c2.73,4.32,5.61,3.21,8.96,1.03c8.15-5.33-0.05-0.04,8.18-5.26
		C1010.8,411.87,1012.61,409.45,1009.8,405.39z"/>
	<g id="XMLID_13_">
		<g id="XMLID_18_">
			<path class="st0" d="M286.25,38.11c131.01,0.14,242.09,103.9,242.25,241.43c0.17,135.43-107.66,241.31-242.37,242.34
				C153.15,522.9,42.48,412.65,43.33,279.79C44.21,141.08,156.17,37.86,286.25,38.11z M510.19,275.45
				c-2.28-12.76-4.42-33.71-9.93-53.73c-12.87-46.72-38.89-85.53-76.46-116.12c-49.94-40.66-107.15-57.69-171.06-48.33
				c-60.24,8.83-109.71,37.97-148.47,84.71c-34.5,41.6-52.6,89.58-51.61,143.92c0.9,49.54,16.21,94.63,45.81,134.34
				c42.29,56.74,98.35,89.59,169.78,92.54c51.26,2.12,98.11-13.17,139.65-42.98C471.45,424.19,507.11,362.83,510.19,275.45z"/>
		</g>
		<g id="XMLID_16_">
			<path class="st0" d="M280.96,465.99c-12.21-13.73-24.42-27.45-36.62-41.18c-13.41-15.1-26.71-30.3-40.27-45.27
				c-3.13-3.46-3.77-6.73-3.38-11.39c2.71-32.66,18.79-60.62,30.96-89.96c3.31-7.98,6.89-15.86,10.78-24.77
				c5.9,12.26,11.26,23.39,16.99,35.3c7.32-6.46,9.85-14.29,9.4-22.45c-0.68-12.38-1.08-25.17-4.53-36.93
				c-6.85-23.34-7.47-46.03-2.02-69.82c6.09-26.6,9.68-53.77,14.58-81.92c1.31,18.41,2.91,35.44,3.65,52.51
				c1.13,26.13,10.64,49.51,22.7,72.09c5.87,10.99,11.71,22.06,18.55,32.45c16.7,25.36,23.48,52.06,15.5,82.24
				c-3.27,12.37-3.62,25.5-5.58,40.43c11.47-6.99,22.06-11.64,34.86-6.02c-4.77,4.25-9.23,7.98-13.41,12
				c-7.26,6.97-9.45,15.57-7.55,25.33c0.24,1.22,0.53,2.44,0.74,3.67c1.84,10.44,0.58,18.64-9.91,25.33
				c-16.33,10.42-31.35,22.89-47.51,34.93c-7.69-10.03-12.25-21.09-8.52-32.78c4.27-13.38,10.4-26.32,17-38.78
				c9.44-17.82,20.82-34.7,24.83-54.92c5.37-27.05-1.5-51.34-17.24-73.42c-2.17-3.04-5.37-5.35-8.81-8.71
				c-0.91,11.69-1.31,21.78-2.55,31.77c-2.7,21.73-14.47,39.49-25.7,57.51c-6.71,10.77-13.18,21.74-18.98,33.03
				c-7.91,15.4-6.62,29.97,4.61,43.89c7.31,9.07,13.95,18.87,19.56,29.07c4.35,7.92,6.65,16.97,9.86,25.52
				C282.29,465.16,281.63,465.57,280.96,465.99z"/>
		</g>
		<g id="XMLID_15_">
			<path class="st0" d="M168.8,437.69c-0.1,8.66-6.66,14.93-15.38,14.68c-7.56-0.22-14.53-6.99-14.6-14.2
				c-0.1-8.9,6.75-15.65,15.59-15.37C162.73,423.05,168.89,429.43,168.8,437.69z"/>
		</g>
		<g id="XMLID_14_">
			<path class="st0" d="M411.08,119.07c8.3-0.04,14.89,6.26,15.07,14.39c0.18,8.18-7.1,15.5-15.2,15.3
				c-7.81-0.19-14.81-7.35-14.74-15.08C396.27,125.58,402.87,119.11,411.08,119.07z"/>
		</g>
	</g>
</g>
</svg>
