<?xml version="1.0" encoding="utf-8"?>
<!-- Generator: Adobe Illustrator 23.0.6, SVG Export Plug-In . SVG Version: 6.00 Build 0)  -->
<svg version="1.1" id="Camada_1" xmlns="http://www.w3.org/2000/svg" xmlns:xlink="http://www.w3.org/1999/xlink" x="0px" y="0px"
	 viewBox="0 0 500 500" style="enable-background:new 0 0 500 500;" xml:space="preserve">
<style type="text/css">
	.st0{fill:#FFFFFF;}
</style>
<path class="st0" d="M490.32,96.33L345.15,40.85c-3.75-1.44-7.96,0.45-9.39,4.22c-1.43,3.76,0.45,7.97,4.21,9.41l127.34,48.67
	l-76.88,29.38v-21.14c0-3.32-2.25-6.23-5.46-7.06C320.1,87.62,253.46,83.12,186.9,90.92c-24.12,2.83-48.3,7.34-71.87,13.4
	c-3.22,0.83-5.47,3.73-5.47,7.06v21.14l-76.89-29.39L250,20.08l61.19,23.39c3.75,1.43,7.96-0.45,9.39-4.22
	c1.43-3.76-0.45-7.97-4.21-9.41L252.59,5.48c-1.67-0.64-3.51-0.64-5.18,0L9.68,96.33C6.86,97.41,5,100.12,5,103.14
	c0,3.02,1.86,5.73,4.68,6.81l99.89,38.18v41.45c-62.4,73.08-58.3,182.86,9.83,251.16c16.6,16.64,35.85,29.77,57.2,39.03
	c0.94,0.41,1.92,0.6,2.88,0.6c2.81,0,5.49-1.65,6.68-4.4c1.6-3.69-0.1-7.99-3.79-9.58c-19.66-8.53-37.38-20.62-52.69-35.96
	c-32.27-32.35-48.95-74.81-49.72-117.57c7.32-6.63,17.89-13.26,28.35-17.69c9.72-4.12,23.94-8.39,36.48-5.33
	c8.88,2.16,15.33,7.66,19.75,16.83c8.7,18.05,5.27,35.78,1.96,52.92c-3.88,20.07-7.89,40.83,9.63,58.39
	c8.42,8.45,18.83,10.99,30.94,7.57c9.62-2.72,19.32-8.75,29.58-15.15c18.14-11.3,36.91-22.98,55.8-16.87
	c33.19,10.73,39.14,52.2,40.2,65.46C297,478.88,255,485.44,213.83,476.5c-3.93-0.85-7.79,1.65-8.65,5.58
	c-0.85,3.93,1.64,7.81,5.57,8.66c13.16,2.86,26.39,4.25,39.51,4.25c48.43,0,95.24-19.07,130.35-54.27
	c68.14-68.3,72.23-178.08,9.83-251.16v-41.45l43.39-16.58v44.27c-9.69,3.1-16.72,12.2-16.72,22.92c0,13.26,10.76,24.05,23.99,24.05
	c13.23,0,23.99-10.79,23.99-24.05c0-10.72-7.04-19.83-16.72-22.92v-49.83l41.95-16.03c2.82-1.08,4.68-3.78,4.68-6.81
	S493.14,97.41,490.32,96.33z M188.6,105.4c62.91-7.38,125.89-3.46,187.3,11.67v67.83c-62.01-14.84-125.54-18.59-188.99-11.14
	c-21.02,2.46-42.1,6.2-62.79,11.14v-67.83C145.32,111.86,166.98,107.94,188.6,105.4z M118.78,201.24
	c17.73-4.56,35.81-8.2,53.93-10.88c-18.66,28.73-50.73,45.77-77.93,49.54C100.89,226.25,108.88,213.23,118.78,201.24z
	 M370.32,430.43c-7.45,7.47-15.48,14.13-23.96,20c-0.85-6.19-2.38-14.11-5.14-22.45c-8.26-24.92-23.57-41.63-44.3-48.33
	c-25.31-8.19-47.96,5.92-67.94,18.36c-22.39,13.94-33.18,19.07-42.57,9.66c-11.47-11.5-9.61-24.71-5.63-45.31
	c3.59-18.57,7.66-39.62-3.14-62.03c-6.24-12.96-16.41-21.49-29.41-24.65c-16.4-4-33.84,1.09-45.58,6.07
	c-7.67,3.25-15.26,7.46-21.98,12.09c1.21-13.1,3.93-26.09,8.16-38.7c18.69-1.05,38.6-7.63,56.63-18.82
	c19.98-12.4,35.6-29.05,45.4-48.32c10.57-1.2,21.14-2.07,31.7-2.63c-10.19,30.35-14.1,60.97,10.26,85.4
	c11.1,11.12,24.68,12.74,40.36,4.81c12.19-6.16,24.27-17.31,35.95-28.08c23.86-22.01,35.82-30.5,43.66-22.65
	c9.93,9.95,10.77,35.88,11.58,60.96c0.69,21.32,1.41,43.38,7.07,61.74c5.8,18.81,16.41,31.17,31.57,36.89
	C394.95,401.08,384.05,416.67,370.32,430.43z M408.78,371.03c-11.35-4.03-18.88-13-23.45-27.81c-5.08-16.49-5.76-37.54-6.43-57.91
	c-0.95-29.19-1.84-56.76-15.83-70.79c-6.06-6.07-16.73-11.41-33.16-2.35c-9.9,5.46-19.97,14.74-30.63,24.58
	c-25.1,23.16-42.58,37.32-56.17,23.69c-14.06-14.1-20.25-32.53-4.93-75.68c48.14-1.11,96.07,4.4,143.05,16.48
	C421.27,249.75,430.18,315.04,408.78,371.03z M441.1,208.21c-5.21,0-9.45-4.25-9.45-9.47c0-5.22,4.24-9.48,9.45-9.48
	c5.21,0,9.45,4.25,9.45,9.48C450.55,203.96,446.31,208.21,441.1,208.21z"/>
</svg>
