<?xml version="1.0" encoding="utf-8"?>
<!-- Generator: Adobe Illustrator 23.0.6, SVG Export Plug-In . SVG Version: 6.00 Build 0)  -->
<svg version="1.1" id="Camada_1" xmlns="http://www.w3.org/2000/svg" xmlns:xlink="http://www.w3.org/1999/xlink" x="0px" y="0px"
	 viewBox="0 0 90 90" style="enable-background:new 0 0 90 90;" xml:space="preserve">
<style type="text/css">
	.st0{fill:#FFFFFF;}
</style>
<g>
	<path class="st0" d="M40.35,50.84l12.16-6.3l-12.16-6.34L40.35,50.84L40.35,50.84z M67.5,46.7c0,3.64-0.45,7.28-0.45,7.28
		s-0.44,3.1-1.79,4.47c-1.71,1.79-3.63,1.8-4.51,1.91C54.46,60.81,45,60.82,45,60.82s-11.7-0.11-15.3-0.45
		c-1-0.19-3.25-0.13-4.96-1.92c-1.35-1.37-1.79-4.47-1.79-4.47s-0.45-3.64-0.45-7.28v-3.41c0-3.64,0.45-7.28,0.45-7.28
		s0.44-3.1,1.79-4.47c1.71-1.79,3.63-1.8,4.51-1.91c6.3-0.46,15.74-0.46,15.74-0.46h0.02c0,0,9.45,0,15.74,0.46
		c0.88,0.11,2.8,0.11,4.51,1.91C66.61,32.9,67.05,36,67.05,36s0.45,3.64,0.45,7.28V46.7L67.5,46.7z M0,90h90V0H0V90L0,90z M0,0v90V0
		L0,0z"/>
</g>
</svg>
